<svg width="145" height="147" viewBox="0 0 145 147" fill="none" xmlns="http://www.w3.org/2000/svg">
<g opacity="0.1">
<mask id="mask0_3607_9386" style="mask-type:alpha" maskUnits="userSpaceOnUse" x="0" y="-36" width="183" height="183">
<rect y="-36" width="183" height="183" fill="#D9D9D9"/>
</mask>
<g mask="url(#mask0_3607_9386)">
<path d="M30.5 124.125C26.3062 124.125 22.7161 122.632 19.7297 119.645C16.7432 116.659 15.25 113.069 15.25 108.875V2.125C15.25 -2.06875 16.7432 -5.65885 19.7297 -8.64531C22.7161 -11.6318 26.3062 -13.125 30.5 -13.125H76.25C80.4437 -13.125 84.0339 -11.6318 87.0203 -8.64531C90.0068 -5.65885 91.5 -2.06875 91.5 2.125V17.375H152.5C156.694 17.375 160.284 18.8682 163.27 21.8547C166.257 24.8411 167.75 28.4313 167.75 32.625V108.875C167.75 113.069 166.257 116.659 163.27 119.645C160.284 122.632 156.694 124.125 152.5 124.125H30.5ZM30.5 108.875H76.25V93.625H30.5V108.875ZM30.5 78.375H76.25V63.125H30.5V78.375ZM30.5 47.875H76.25V32.625H30.5V47.875ZM30.5 17.375H76.25V2.125H30.5V17.375ZM91.5 108.875H152.5V32.625H91.5V108.875ZM106.75 63.125V47.875H137.25V63.125H106.75ZM106.75 93.625V78.375H137.25V93.625H106.75Z" fill="#007965"/>
</g>
</g>
</svg>
